# xmcd CD database file
#
# Track frame offsets:
#	150
#	20809
#	40349
#	59055
#	76281
#	94853
#	118580
#	143342
#	158862
#	176753
#	199097
#
# Disc length: 2821 seconds
#
# Revision: 0
# Processed by: cddbd v1.5.2PL0 Copyright (c) Steve Scherf et al.
# Submitted via: CDex 1.51
#
DISCID=950b030b
DTITLE=Bill Perry - Don't Know Nothin' About Love
DYEAR=2006
DGENRE=Blues
TTITLE0=Let Me Love You
TTITLE1=My Baby Love To Dance
TTITLE2=Hello Josephine
TTITLE3=I Don't Know Nothin' Bout Love
TTITLE4=Ball Of Confusion
TTITLE5=Leavin' Home
TTITLE6=Down In New Orleans
TTITLE7=She's A Burglar
TTITLE8=Accuse Me Of Lyin'
TTITLE9=Can't Afford To Die
TTITLE10=Waitin' For My Luck To Change
EXTD=YEAR: 2006
EXTT0=
EXTT1=
EXTT2=
EXTT3=
EXTT4=
EXTT5=
EXTT6=
EXTT7=
EXTT8=
EXTT9=
EXTT10=
PLAYORDER=
